<svg xmlns="http://www.w3.org/2000/svg" width="500" height="500" viewBox="0 0 500 500"><g transform="translate(179.47386353520045,263.69101972187445)translate(93.04866223567474,54.90449013906269)rotate(0)translate(-93.04866223567474,-54.90449013906269) scale(1.1538629510506409,1.1538629510506409)" opacity="1"><defs class="defs"><linearGradient id="linearGradientdd8d75c00eae65d4bbb0fcbde06f207f" class="linearGradient1" gradientTransform="translate(0.5,0.5) rotate(270) translate(-0.5,-0.5)" x1="50%" y1="0%" x2="50%" y2="100%"><stop id="stop1" offset="0%" class="linearGradientColor1" stop-color="#FFDD64"></stop><stop id="stop2" offset="100%" class="linearGradientColor2" stop-color="#FF8F00"></stop></linearGradient><linearGradient id="linearGradientb27cb94128ca0bec384324ee51fc9c7d" class="linearGradient2" gradientTransform="translate(0.5,0.5) rotate(309) translate(-0.5,-0.5)" x1="50%" y1="0%" x2="50%" y2="100%"><stop id="stop1" offset="0%" class="linearGradientColor1" stop-color="#00EFC8"></stop><stop id="stop2" offset="100%" class="linearGradientColor2" stop-color="#2C94EA"></stop></linearGradient></defs><path fill="url(#linearGradientdd8d75c00eae65d4bbb0fcbde06f207f)" d="M150.689,20.092c-3.773-6.813-8.922-11.097-11.655-13.044c-0.097-0.069-0.159-0.112-0.205-0.148&#xA;&#x9;c-6.438-3.98-13.84-6.382-21.402-6.944l-0.192-0.016c-0.168-0.014-0.336-0.027-0.506-0.038c-0.23-0.014-0.461-0.028-0.695-0.039&#xA;&#x9;c-0.864-0.038-1.534-0.055-2.166-0.055c-0.001,0-0.002,0-0.003,0l-0.099-0.003c-0.176-0.004-0.594-0.009-1.238,0.003&#xA;&#x9;c-4.186,0.136-14.856,1.004-23.514,6.116c-0.654,0.389-1.321,0.819-1.981,1.278l-0.16,0.107c-0.755,0.479-1.593,1.068-2.495,1.756&#xA;&#x9;c-1.572,1.272-3.187,2.667-4.933,4.265c-0.44,0.401-0.885,0.814-1.332,1.236c-0.942,0.887-1.774,1.687-2.543,2.446&#xA;&#x9;c-4.255,4.208-7.92,8.345-10.245,11.073c-2.77,3.251-3.679,4.435-3.969,4.881l-0.016-0.018L61.1,33.232l0.002,0.002&#xA;&#x9;c-1.083,1.314-2.157,2.637-3.191,3.928l-1.476,1.723c-0.71,0.885-1.459,1.822-2.239,2.798c-1.186,1.484-2.444,3.06-3.751,4.682&#xA;&#x9;l-0.735,0.91c-6.099,7.547-13.832,16.803-19.556,21.442c-1.209,1.193-2.571,2.274-4.047,3.214l-0.06,0.051&#xA;&#x9;c-3.983,3.608-13.201,4.775-17.063,4.775c-0.03-0.001-3.089-0.157-7.37-1.003c-0.837-0.153-1.372-0.281-1.553-0.325l-1.729-0.01&#xA;&#x9;l1.619,0.395c0.021,0.008,0.061,0.025,0.119,0.051c2.474,1.075,5.543,1.802,8.875,2.101c1.138,0.103,2.313,0.154,3.495,0.154&#xA;&#x9;c7.545,0,19.73-2.173,34.927-12.522c3.468-2.267,7.003-4.867,10.809-7.948c0.757-0.613,1.507-1.232,2.252-1.856&#xA;&#x9;c3.447-2.887,7.098-6.153,11.163-9.986l0.17-0.159c3.125-2.951,6.065-5.824,8.908-8.603c8.435-8.243,15.097-14.753,19.542-16.404&#xA;&#x9;l0.063-0.022c6.156-2.272,12.255-2.518,14.591-2.518c0.627,0,1.028,0.018,1.094,0.022c0.478,0.034,0.958,0.08,1.428,0.137&#xA;&#x9;c14.736,1.771,25.85,14.312,25.85,29.168c0,11.09-6.159,21.123-16.075,26.181l0.182,0.355c0.009-0.004,0.019-0.009,0.028-0.014&#xA;&#x9;l0.001,0.002l0.069-0.03c8.136-3.762,19.494-9.924,24.181-19.986C156.614,41.608,156.299,30.221,150.689,20.092z" class="color c1"></path><path fill="url(#linearGradientb27cb94128ca0bec384324ee51fc9c7d)" d="M138.829,6.899c0,0,23.369,19.85,12.429,46.881c-4.625,9.93-15.901,16.046-23.982,19.783l-0.111,0.049&#xA;&#x9;c-3.235,1.65-6.683,2.669-10.296,3.043l1.016-0.366l-1.736,0.207l-0.12,0.011c-1.68,0.171-2.979,0.196-3.604,0.196&#xA;&#x9;c-0.334,0-0.531-0.008-0.563-0.009c-1.389-0.092-3.569-0.312-6.076-0.843c-1.715-0.327-3.295-0.732-4.801-1.229&#xA;&#x9;c-0.397-0.204-0.826-0.439-1.363-0.748c-1.214-0.574-2.21-1.21-2.959-1.89l-0.167-0.149c-5.999-4.282-12.836-11.209-19.765-20.023&#xA;&#x9;l-0.048-0.063c-1.167-1.395-2.405-2.901-3.679-4.479l-0.156-0.193l-0.156,0.193c-1.179,1.46-2.335,2.913-3.433,4.316&#xA;&#x9;c-0.023,0.028-2.357,2.875-5.76,6.88c-0.751,0.885-1.558,1.827-2.404,2.813l-0.109,0.127l0.107,0.13&#xA;&#x9;c6.764,8.217,16.385,19.119,23.79,24.383c10.224,8.815,26.912,9.085,28.853,9.085c0.003,0,0.007,0,0.01,0l0.164,0.012&#xA;&#x9;c0.106,0.007,0.265,0.017,0.479,0.023h0.004h0.004c15.608-0.172,30.165-8.021,38.935-20.985c0.016-0.021,0.029-0.043,0.053-0.081&#xA;&#x9;c5.301-7.866,8.103-17.044,8.103-26.542C161.482,30.822,153.013,15.67,138.829,6.899z" class="color c2"></path></g><g transform="translate(134.6395749367952,263.35809385080904)translate(80.33393820347062,54.9044901390627)rotate(0)translate(-80.33393820347062,-54.9044901390627) scale(1.1565163427985174,1.1565163427985174)" opacity="1"><defs class="defs"><linearGradient id="linearGradiente893909f558d834cd62fe9a11a3b8089" class="linearGradient1" gradientTransform="translate(0.5,0.5) rotate(309) translate(-0.5,-0.5)" x1="50%" y1="0%" x2="50%" y2="100%"><stop id="stop1" offset="0%" class="linearGradientColor1" stop-color="#00EFC8"></stop><stop id="stop2" offset="100%" class="linearGradientColor2" stop-color="#2C94EA"></stop></linearGradient><linearGradient id="linearGradient0ed1a101d92aee9f4e82c9f916e5eb05" class="linearGradient2" gradientTransform="translate(0.5,0.5) rotate(270) translate(-0.5,-0.5)" x1="50%" y1="0%" x2="50%" y2="100%"><stop id="stop1" offset="0%" class="linearGradientColor1" stop-color="#FFDD64"></stop><stop id="stop2" offset="100%" class="linearGradientColor2" stop-color="#FF8F00"></stop></linearGradient></defs><path fill="url(#linearGradiente893909f558d834cd62fe9a11a3b8089)" d="M76.42,9.057C75.414,8.19,74.343,7.409,73.232,6.7c-0.249-0.159-0.5-0.315-0.753-0.467&#xA;&#x9;c-1.089-0.637-2.183-1.207-3.272-1.722C58.014-0.768,47.26,0.044,47.155,0.045C35.348,0.174,24.572,4.65,16.33,11.932&#xA;&#x9;c-2.161,2.118-19.496,20.605-0.363,51.314c5.869,7.372,15.614,10.814,22.761,12.408c-11.945-3.804-20.623-15.001-20.623-28.189&#xA;&#x9;c0-16.31,13.27-29.58,29.579-29.58c0,0,4.446-0.037,10.76,1.595c0.041,0.011,0.08,0.02,0.121,0.03&#xA;&#x9;c0.119,0.031,0.285,0.083,0.472,0.146c2.327,0.743,4.439,1.739,5.869,3.034l0.443,0.401l0.492,0.339&#xA;&#x9;c3.337,2.294,8.517,7.413,14.516,14.222c2.614,2.967,5.382,6.254,8.226,9.776c0.245-0.303,0.489-0.603,0.734-0.909&#xA;&#x9;c1.483-1.85,2.981-3.754,4.488-5.711l1.509-1.763c1.907-2.377,3.537-4.379,4.749-5.757c0.006-0.007,0.013-0.015,0.019-0.021&#xA;&#x9;C93.785,25.6,86.021,16.938,76.42,9.057z" class="color c1"></path><path fill="url(#linearGradient0ed1a101d92aee9f4e82c9f916e5eb05)" d="M138.924,20.467c-1.431,0.61-2.709,1.343-3.682,2.223l-0.441,0.402l-0.493,0.339&#xA;&#x9;c-4.749,3.265-13.136,12.123-22.452,23.638l-0.483,0.599c-1.071,1.33-2.151,2.685-3.243,4.08c0,0-2.318,2.83-5.762,6.883&#xA;&#x9;c-0.751,0.884-1.558,1.827-2.405,2.813c-7.395,8.596-17.955,20.384-23.542,24.358c-8.802,7.588-22.372,8.811-27.173,9.002&#xA;&#x9;c-0.738,0.029-1.268,0.035-1.543,0.035c0,0-0.014,0.001-0.021,0.001c-0.061,0.004-0.371,0.02-0.896,0.025&#xA;&#x9;c-3.356,0.038-15.338-0.353-25.143-7.311C-1.212,70.798-2.067,50.466,1.696,35.878c0.033-0.128,0.066-0.258,0.1-0.386&#xA;&#x9;c0.168-0.643,0.347-1.281,0.541-1.913c0.029-0.097,0.061-0.19,0.091-0.286c2.62-8.348,7.495-15.701,13.902-21.361&#xA;&#x9;C14.168,14.05-2.184,70.249,47.683,77.801c8.097,0.729,21.33-0.782,38.294-12.336c3.686-2.41,7.292-5.102,10.792-7.936&#xA;&#x9;c0.756-0.612,1.505-1.231,2.25-1.855c3.854-3.227,7.564-6.595,11.092-9.919l0.34-0.321c12.361-11.68,22.432-22.727,28.412-24.946&#xA;&#x9;C138.883,20.481,138.904,20.474,138.924,20.467z" class="color c2"></path></g><g transform="translate(158.8423196647965,126.90284757118927)translate(91.71345910490044,85.85847187564359)rotate(0)translate(-91.71345910490044,-85.85847187564359) scale(1.8342691820980088,1.8342691820980088)" opacity="1"><defs class="defs"><linearGradient id="linearGradient4cee71c92c2a656cf14beb6cb7ab0c9f" class="linearGradient1" gradientTransform="translate(0.5,0.5) rotate(270) translate(-0.5,-0.5)" x1="50%" y1="0%" x2="50%" y2="100%"><stop id="stop1" offset="0%" class="linearGradientColor1" stop-color="#FFDD64"></stop><stop id="stop2" offset="100%" class="linearGradientColor2" stop-color="#FF8F00"></stop></linearGradient></defs><path transform="translate(-3.3306690738754696e-16,0)" d="M99.866,23.353c-1.333,-13.118 -12.41,-23.353 -25.878,-23.353c-10.795,0 -20.05,6.575 -23.988,15.937c-3.938,-9.362 -13.193,-15.937 -23.987,-15.937c-13.469,0 -24.547,10.235 -25.879,23.353c-0.089,0.874 -0.134,1.762 -0.134,2.66c0,31.606 38.788,46.523 50,67.603v0c11.212,-21.079 50,-35.996 50,-67.603c0,-0.898 -0.045,-1.786 -0.134,-2.66z" fill="url(#linearGradient4cee71c92c2a656cf14beb6cb7ab0c9f)" class="fill c1"></path></g><g transform="translate(232.41636139479766,160.38954060666654)translate(18.209213545666657,51.79219782100259)rotate(0)translate(-18.209213545666657,-51.79219782100259) scale(1.1230387849372696,1.1230387849372696)" opacity="1"><defs class="defs"><linearGradient id="linearGradient89166b3e6bb3d85298c89a09d6f79ad7" class="linearGradient1" gradientTransform="translate(0.5,0.5) rotate(309) translate(-0.5,-0.5)" x1="50%" y1="0%" x2="50%" y2="100%"><stop id="stop1" offset="0%" class="linearGradientColor1" stop-color="#00EFC8"></stop><stop id="stop2" offset="100%" class="linearGradientColor2" stop-color="#2C94EA"></stop></linearGradient></defs><path transform="translate(-32.383971045069806,-3.901999999999984)" d="M56.783,3.938c0.503,0.215 0.761,0.651 1.007,1.099c0.917,1.642 1.637,3.365 2.152,5.175c0.629,2.206 1.103,4.442 1.279,6.735c0.131,1.722 0.018,3.431 -0.298,5.127c-0.608,3.236 -1.874,6.217 -3.552,9.033c-1.723,2.884 -3.802,5.482 -6.197,7.832c-0.054,0.052 -0.091,0.148 -0.083,0.218c0.369,3.016 0.743,6.029 1.116,9.045c0.008,0.05 0.015,0.103 0.023,0.145c0.48,-0.043 0.948,-0.104 1.414,-0.121c3.058,-0.118 5.63,0.929 7.666,3.229c1.257,1.416 2.079,3.078 2.684,4.855c0.641,1.859 0.938,3.766 0.774,5.73c-0.165,2.01 -0.79,3.873 -1.868,5.576c-1.641,2.586 -3.929,4.406 -6.704,5.643c-0.233,0.105 -0.47,0.203 -0.712,0.293c-0.109,0.037 -0.131,0.09 -0.117,0.199c0.263,2.086 0.524,4.17 0.777,6.258c0.178,1.465 0.372,2.93 0.497,4.398c0.152,1.848 0.03,3.682 -0.496,5.469c-0.491,1.662 -1.316,3.123 -2.642,4.268c-1.227,1.064 -2.658,1.701 -4.262,1.898c-3.513,0.426 -6.578,-0.564 -9.108,-3.061c-1.258,-1.24 -1.997,-2.77 -2.149,-4.549c-0.143,-1.676 0.248,-3.246 1.066,-4.703c0.634,-1.131 1.612,-1.891 2.867,-2.219c1.912,-0.502 3.599,-0.043 4.922,1.422c1.338,1.482 1.646,3.236 0.896,5.084c-0.746,1.842 -2.191,2.842 -4.173,3.018c-0.495,0.039 -0.999,-0.045 -1.503,-0.07c0.005,0.023 0.025,0.078 0.049,0.133c0.438,0.998 1.174,1.725 2.093,2.281c2.401,1.455 5.674,1.266 7.85,-0.465c1.167,-0.932 1.907,-2.15 2.364,-3.559c0.43,-1.318 0.566,-2.682 0.554,-4.066c-0.019,-1.504 -0.262,-2.982 -0.438,-4.469c-0.258,-2.17 -0.526,-4.332 -0.79,-6.498c-0.01,-0.057 -0.019,-0.117 -0.029,-0.188c-0.175,0.039 -0.34,0.08 -0.506,0.115c-2.101,0.482 -4.217,0.562 -6.342,0.186c-2.949,-0.529 -5.499,-1.84 -7.644,-3.934c-1.765,-1.721 -3.321,-3.604 -4.532,-5.76c-1.308,-2.326 -2.121,-4.811 -2.282,-7.484c-0.046,-0.75 -0.006,-1.508 -0.004,-2.262c0,-0.064 -0.004,-0.125 -0.005,-0.191c0.005,-0.072 0.011,-0.148 0.02,-0.223c0.011,-0.051 0.026,-0.102 0.032,-0.154c0.103,-1.059 0.303,-2.096 0.58,-3.121c0.612,-2.25 1.572,-4.352 2.783,-6.337c2.365,-3.884 5.392,-7.19 8.893,-10.072c1.147,-0.943 2.357,-1.81 3.543,-2.707c0.083,-0.063 0.125,-0.12 0.108,-0.237c-0.368,-2.824 -0.582,-5.661 -0.593,-8.509c-0.004,-1.869 0.083,-3.733 0.306,-5.589c0.221,-1.857 0.576,-3.687 1.183,-5.463c0.529,-1.565 1.224,-3.05 2.29,-4.329c0.889,-1.065 1.846,-2.067 2.887,-2.985c0.572,-0.507 1.166,-0.993 1.939,-1.175c0.139,0.012 0.277,0.024 0.415,0.036zM49.596,40.398c-0.035,0.015 -0.054,0.018 -0.065,0.025c-0.747,0.645 -1.57,1.184 -2.38,1.746c-1.112,0.772 -2.117,1.684 -3.083,2.633c-2.234,2.198 -4.205,4.607 -5.757,7.338c-1.11,1.959 -1.959,4.018 -2.293,6.264c-0.452,3.029 0.164,5.812 2.02,8.262c1.954,2.578 4.496,4.396 7.511,5.533c2.543,0.965 5.14,1.096 7.76,0.305c0.067,-0.02 0.133,-0.043 0.205,-0.068c-0.724,-5.9 -1.442,-11.793 -2.166,-17.693c-0.063,0.01 -0.11,0.014 -0.158,0.02c-0.869,0.129 -1.679,0.424 -2.421,0.896c-1.283,0.82 -2.188,1.979 -2.868,3.324c-0.526,1.043 -0.791,2.152 -0.638,3.322c0.264,2.021 1.354,3.504 3.057,4.574c0.226,0.143 0.454,0.283 0.66,0.453c0.137,0.111 0.256,0.262 0.344,0.416c0.144,0.256 0.044,0.502 -0.228,0.615c-0.078,0.033 -0.163,0.057 -0.246,0.066c-0.383,0.049 -0.737,-0.045 -1.052,-0.26c-0.575,-0.389 -1.151,-0.781 -1.705,-1.197c-1.994,-1.498 -3.19,-3.469 -3.5,-5.955c-0.145,-1.146 -0.161,-2.297 -0.062,-3.443c0.056,-0.625 0.117,-1.252 0.26,-1.859c0.271,-1.133 0.882,-2.105 1.637,-2.98c1.625,-1.885 3.665,-3.146 6.013,-3.924c0.058,-0.02 0.118,-0.042 0.179,-0.064c-0.347,-2.792 -0.686,-5.565 -1.024,-8.349zM50.046,30.796c0.052,-0.036 0.077,-0.049 0.096,-0.065c1.498,-1.183 2.939,-2.425 4.239,-3.823c1.543,-1.66 2.842,-3.481 3.708,-5.588c0.702,-1.717 1.149,-3.493 1.104,-5.366c-0.021,-0.811 -0.166,-1.598 -0.555,-2.32c-0.647,-1.209 -1.813,-1.656 -3.101,-1.183c-0.756,0.275 -1.367,0.766 -1.906,1.347c-0.932,1.003 -1.574,2.186 -2.082,3.443c-0.854,2.112 -1.272,4.326 -1.487,6.583c-0.172,1.848 -0.188,3.696 -0.101,5.55c0.019,0.462 0.055,0.926 0.085,1.422zM55.125,71.758c0.037,-0.008 0.058,-0.014 0.077,-0.023c0.241,-0.135 0.489,-0.26 0.725,-0.404c2.121,-1.314 3.717,-3.08 4.62,-5.424c0.608,-1.588 0.75,-3.213 0.264,-4.861c-0.333,-1.127 -0.966,-2.084 -1.737,-2.951c-1.382,-1.553 -3.052,-2.65 -5.079,-3.174c-0.314,-0.08 -0.634,-0.127 -0.978,-0.193c0.705,5.7 1.408,11.36 2.108,17.03z" fill="url(#linearGradient89166b3e6bb3d85298c89a09d6f79ad7)" class="fill c1"></path></g><g transform="translate(165.65462064857945,310.84448677046856)translate(29.347755432128903,17.0390625)rotate(0)translate(-29.347755432128903,-17.0390625)" opacity="1"><path transform="translate(6,19.16432284098797)rotate(0)" d="M11.20-5.13L12.65-9.25L12.65-9.25Q11.10-9.39 9.62-9.39L9.62-9.39L9.62-9.39Q8.14-9.39 6.56-9.20L6.56-9.20L6.56-9.20Q4.56-3.61 2.27-1.21L2.27-1.21L2.27-1.21Q1.42-0.31 0.52 0L0.52 0L0.52 0Q0.29 0.09 0.06 0.09L0.06 0.09L0.06 0.09Q-0.18 0.09-0.36 0.01L-0.36 0.01L-0.36 0.01Q-0.54-0.08-0.65-0.20L-0.65-0.20L-0.65-0.20Q-0.92-0.45-0.92-0.74L-0.92-0.74L-0.92-0.74Q-0.92-1.02-0.73-1.16L-0.73-1.16L-0.73-1.16Q1.27-2.59 3.51-8.62L3.51-8.62L3.51-8.62Q3.41-8.59 3.32-8.57L3.32-8.57L3.32-8.57Q3.23-8.54 3.11-8.51L3.11-8.51L3.11-8.51Q2.98-8.47 2.81-8.58L2.81-8.58L2.81-8.58Q2.63-8.70 2.49-8.88L2.49-8.88L2.49-8.88Q2.16-9.34 2.40-9.55L2.40-9.55L2.40-9.55Q2.84-9.94 4.09-10.29L4.09-10.29L4.09-10.29Q5.78-15.52 5.84-17.69L5.84-17.69L5.84-17.69Q5.32-17.67 4.88-17.42L4.88-17.42L3.93-16.88L3.93-16.88Q3.54-16.66 2.89-17.21L2.89-17.21L2.89-17.21Q2.27-17.74 2.34-18.22L2.34-18.22L2.34-18.22Q2.43-18.94 4.35-19.40L4.35-19.40L4.35-19.40Q5.03-19.57 5.42-19.57L5.42-19.57L5.42-19.57Q5.81-19.57 6.20-19.55L6.20-19.55L6.20-19.55Q6.58-19.53 6.90-19.45L6.90-19.45L6.90-19.45Q8.15-19.15 8.44-18.37L8.44-18.37L8.44-18.37Q8.57-18.02 8.57-17.52L8.57-17.52L8.57-17.52Q8.57-17.03 8.47-16.35L8.47-16.35L8.47-16.35Q8.37-15.68 8.18-14.82L8.18-14.82L8.18-14.82Q7.78-12.96 7.11-10.85L7.11-10.85L7.11-10.85Q9.85-11.17 12.79-11.17L12.79-11.17L13.33-11.17L14.02-13.24L14.02-13.24Q15.18-16.72 15.44-18.51L15.44-18.51L15.44-18.51Q15.60-19.57 16.50-19.57L16.50-19.57L16.50-19.57Q17.08-19.57 17.45-19.28L17.45-19.28L17.45-19.28Q18.16-18.76 18.13-18.17L18.13-18.17L18.13-18.17Q18.11-17.57 17.92-16.82L17.92-16.82L17.92-16.82Q17.73-16.08 17.43-15.16L17.43-15.16L17.43-15.16Q17.13-14.25 16.74-13.19L16.74-13.19L15.94-11.06L16.25-11.04L16.25-11.04Q16.43-11.01 16.60-10.99L16.60-10.99L16.60-10.99Q16.77-10.97 16.90-10.92L16.90-10.92L16.90-10.92Q17.16-10.82 17.16-10.58L17.16-10.58L17.16-10.58Q17.16-10.33 17.02-10.06L17.02-10.06L17.02-10.06Q16.88-9.79 16.61-9.55L16.61-9.55L16.61-9.55Q15.97-8.97 15.13-8.95L15.13-8.95L15.13-8.95Q13.59-4.91 13.34-4.00L13.34-4.00L13.34-4.00Q13.09-3.08 13.09-2.76L13.09-2.76L13.09-2.76Q13.09-2.08 13.63-2.08L13.63-2.08L13.63-2.08Q14.13-2.08 14.45-2.24L14.45-2.24L14.90-2.47L14.90-2.47Q15.04-2.53 15.16-2.53L15.16-2.53L15.16-2.53Q15.43-2.53 15.43-2.27L15.43-2.27L15.43-2.27Q15.43-1.15 14.13-0.39L14.13-0.39L14.13-0.39Q13.28 0.11 12.36 0.11L12.36 0.11L12.36 0.11Q11.07 0.11 10.57-1.03L10.57-1.03L10.57-1.03Q10.39-1.42 10.39-1.77L10.39-1.77L10.39-1.77Q10.39-2.59 10.65-3.43L10.65-3.43L10.65-3.43Q10.90-4.27 11.20-5.13L11.20-5.13ZM20.41-4.90L20.41-4.90L20.30-3.93L20.30-3.93Q20.30-2.40 21.32-1.85L21.32-1.85L21.32-1.85Q21.67-1.66 22.16-1.66L22.16-1.66L22.16-1.66Q22.65-1.66 23.04-1.83L23.04-1.83L23.04-1.83Q23.43-2.00 23.68-2.28L23.68-2.28L23.68-2.28Q24.21-2.84 24.21-3.59L24.21-3.59L24.21-3.59Q24.21-4.33 23.91-4.93L23.91-4.93L23.91-4.93Q23.61-5.54 23.15-6.14L23.15-6.14L22.15-7.37L22.15-7.37Q20.93-8.83 20.51-10.04L20.51-10.04L20.51-10.04Q20.10-11.24 20.10-12.24L20.10-12.24L20.10-12.24Q20.10-13.25 20.34-14.15L20.34-14.15L20.34-14.15Q20.59-15.05 21.03-15.86L21.03-15.86L21.03-15.86Q21.47-16.67 22.08-17.35L22.08-17.35L22.08-17.35Q22.70-18.03 23.46-18.52L23.46-18.52L23.46-18.52Q25.03-19.58 26.58-19.58L26.58-19.58L26.58-19.58Q28.13-19.58 28.99-19.15L28.99-19.15L28.99-19.15Q29.86-18.73 30.39-18.07L30.39-18.07L30.39-18.07Q31.37-16.84 31.37-15.09L31.37-15.09L31.37-15.09Q31.37-13.46 30.45-12.03L30.45-12.03L30.45-12.03Q29.61-10.72 28.57-10.37L28.57-10.37L28.57-10.37Q28.34-10.26 27.94-10.26L27.94-10.26L27.94-10.26Q27.55-10.26 27.28-10.38L27.28-10.38L27.28-10.38Q27.01-10.50 26.80-10.70L26.80-10.70L26.80-10.70Q26.36-11.14 26.36-11.65L26.36-11.65L26.36-11.65Q26.36-12.01 26.58-12.12L26.58-12.12L26.58-12.12Q27.53-12.63 28.24-13.62L28.24-13.62L28.24-13.62Q29.01-14.69 29.04-15.75L29.04-15.75L29.04-15.75Q29.08-16.81 28.53-17.32L28.53-17.32L28.53-17.32Q27.99-17.83 27.08-17.83L27.08-17.83L27.08-17.83Q26.17-17.83 25.44-17.42L25.44-17.42L25.44-17.42Q24.72-17.01 24.19-16.32L24.19-16.32L24.19-16.32Q23.05-14.84 23.05-12.81L23.05-12.81L23.05-12.81Q23.05-11.46 23.99-9.97L23.99-9.97L23.99-9.97Q24.38-9.32 24.83-8.70L24.83-8.70L24.83-8.70Q25.29-8.08 25.70-7.42L25.70-7.42L25.70-7.42Q26.62-5.90 26.62-4.69L26.62-4.69L26.62-4.69Q26.62-3.49 26.18-2.66L26.18-2.66L26.18-2.66Q25.75-1.82 25.03-1.21L25.03-1.21L25.03-1.21Q23.48 0.13 21.51 0.13L21.51 0.13L21.51 0.13Q19.64 0.13 18.64-0.98L18.64-0.98L18.64-0.98Q17.83-1.88 17.83-2.92L17.83-2.92L17.83-2.92Q17.83-4.05 18.47-4.83L18.47-4.83L18.47-4.83Q18.96-5.42 19.42-5.54L19.42-5.54L19.42-5.54Q20.41-5.80 20.41-4.90ZM40.66-5.13L42.11-9.25L42.11-9.25Q40.56-9.39 39.08-9.39L39.08-9.39L39.08-9.39Q37.60-9.39 36.02-9.20L36.02-9.20L36.02-9.20Q34.01-3.61 31.72-1.21L31.72-1.21L31.72-1.21Q30.88-0.31 29.98 0L29.98 0L29.98 0Q29.75 0.09 29.52 0.09L29.52 0.09L29.52 0.09Q29.28 0.09 29.10 0.01L29.10 0.01L29.10 0.01Q28.92-0.08 28.80-0.20L28.80-0.20L28.80-0.20Q28.54-0.45 28.54-0.74L28.54-0.74L28.54-0.74Q28.54-1.02 28.73-1.16L28.73-1.16L28.73-1.16Q30.73-2.59 32.97-8.62L32.97-8.62L32.97-8.62Q32.87-8.59 32.78-8.57L32.78-8.57L32.78-8.57Q32.69-8.54 32.57-8.51L32.57-8.51L32.57-8.51Q32.44-8.47 32.27-8.58L32.27-8.58L32.27-8.58Q32.09-8.70 31.95-8.88L31.95-8.88L31.95-8.88Q31.62-9.34 31.86-9.55L31.86-9.55L31.86-9.55Q32.30-9.94 33.55-10.29L33.55-10.29L33.55-10.29Q35.24-15.52 35.30-17.69L35.30-17.69L35.30-17.69Q34.78-17.67 34.34-17.42L34.34-17.42L33.39-16.88L33.39-16.88Q33.00-16.66 32.35-17.21L32.35-17.21L32.35-17.21Q31.72-17.74 31.80-18.22L31.80-18.22L31.80-18.22Q31.89-18.94 33.81-19.40L33.81-19.40L33.81-19.40Q34.49-19.57 34.88-19.57L34.88-19.57L34.88-19.57Q35.27-19.57 35.66-19.55L35.66-19.55L35.66-19.55Q36.04-19.53 36.36-19.45L36.36-19.45L36.36-19.45Q37.61-19.15 37.90-18.37L37.90-18.37L37.90-18.37Q38.03-18.02 38.03-17.52L38.03-17.52L38.03-17.52Q38.03-17.03 37.93-16.35L37.93-16.35L37.93-16.35Q37.83-15.68 37.64-14.82L37.64-14.82L37.64-14.82Q37.24-12.96 36.57-10.85L36.57-10.85L36.57-10.85Q39.31-11.17 42.24-11.17L42.24-11.17L42.79-11.17L43.48-13.24L43.48-13.24Q44.64-16.72 44.90-18.51L44.90-18.51L44.90-18.51Q45.06-19.57 45.96-19.57L45.96-19.57L45.96-19.57Q46.54-19.57 46.91-19.28L46.91-19.28L46.91-19.28Q47.62-18.76 47.59-18.17L47.59-18.17L47.59-18.17Q47.57-17.57 47.38-16.82L47.38-16.82L47.38-16.82Q47.19-16.08 46.89-15.16L46.89-15.16L46.89-15.16Q46.59-14.25 46.20-13.19L46.20-13.19L45.40-11.06L45.71-11.04L45.71-11.04Q45.89-11.01 46.06-10.99L46.06-10.99L46.06-10.99Q46.23-10.97 46.36-10.92L46.36-10.92L46.36-10.92Q46.62-10.82 46.62-10.58L46.62-10.58L46.62-10.58Q46.62-10.33 46.48-10.06L46.48-10.06L46.48-10.06Q46.33-9.79 46.07-9.55L46.07-9.55L46.07-9.55Q45.43-8.97 44.59-8.95L44.59-8.95L44.59-8.95Q43.05-4.91 42.80-4.00L42.80-4.00L42.80-4.00Q42.55-3.08 42.55-2.76L42.55-2.76L42.55-2.76Q42.55-2.08 43.09-2.08L43.09-2.08L43.09-2.08Q43.59-2.08 43.91-2.24L43.91-2.24L44.36-2.47L44.36-2.47Q44.50-2.53 44.62-2.53L44.62-2.53L44.62-2.53Q44.89-2.53 44.89-2.27L44.89-2.27L44.89-2.27Q44.89-1.15 43.59-0.39L43.59-0.39L43.59-0.39Q42.74 0.11 41.82 0.11L41.82 0.11L41.82 0.11Q40.53 0.11 40.03-1.03L40.03-1.03L40.03-1.03Q39.85-1.42 39.85-1.77L39.85-1.77L39.85-1.77Q39.85-2.59 40.11-3.43L40.11-3.43L40.11-3.43Q40.36-4.27 40.66-5.13L40.66-5.13Z" fill="#000000"></path></g><g transform="translate(275.9920463562012,308.4311893730374)translate(29.377349853515625,19.671875)rotate(0)translate(-29.377349853515625,-19.671875)" opacity="1"><path transform="translate(6,21.14825826762722)rotate(0)" d="M16.00-5.67L16.00-5.67L16.00-5.67Q16.00-4.14 15.35-2.88L15.35-2.88L15.35-2.88Q14.71-1.62 13.68-0.70L13.68-0.70L13.68-0.70Q12.66 0.22 11.37 0.73L11.37 0.73L11.37 0.73Q10.08 1.23 8.82 1.23L8.82 1.23L8.82 1.23Q7.62 1.23 6.55 0.99L6.55 0.99L6.55 0.99Q5.48 0.74 4.67 0.19L4.67 0.19L4.67 0.19Q3.86-0.36 3.40-1.27L3.40-1.27L3.40-1.27Q2.93-2.19 2.93-3.53L2.93-3.53L2.93-3.53Q2.93-4.77 3.38-5.78L3.38-5.78L3.38-5.78Q3.83-6.79 4.64-7.64L4.64-7.64L4.64-7.64Q5.45-8.49 6.56-9.19L6.56-9.19L6.56-9.19Q7.67-9.89 8.98-10.46L8.98-10.46L8.98-10.46Q8.03-11.34 7.33-12.37L7.33-12.37L7.33-12.37Q6.63-13.39 6.63-14.76L6.63-14.76L6.63-14.76Q6.63-15.91 7.22-16.89L7.22-16.89L7.22-16.89Q7.81-17.86 8.72-18.57L8.72-18.57L8.72-18.57Q9.64-19.28 10.79-19.74L10.79-19.74L10.79-19.74Q11.94-20.19 13.07-20.33L13.07-20.33L13.07-20.33Q15.12-19.67 16.42-18.63L16.42-18.63L16.42-18.63Q17.72-17.59 17.72-16.27L17.72-16.27L17.72-16.27Q17.72-15.56 17.31-14.86L17.31-14.86L17.31-14.86Q16.90-14.16 16.20-13.52L16.20-13.52L16.20-13.52Q15.50-12.87 14.61-12.31L14.61-12.31L14.61-12.31Q13.72-11.75 12.79-11.31L12.79-11.31L12.79-11.31Q13.37-10.74 13.94-10.15L13.94-10.15L13.94-10.15Q14.52-9.56 14.97-8.88L14.97-8.88L14.97-8.88Q15.42-8.19 15.71-7.41L15.71-7.41L15.71-7.41Q16.00-6.63 16.00-5.67ZM5.81-2.96L5.81-2.96L5.81-2.96Q5.81-2.19 6.03-1.63L6.03-1.63L6.03-1.63Q6.25-1.07 6.62-0.70L6.62-0.70L6.62-0.70Q6.99-0.33 7.46-0.15L7.46-0.15L7.46-0.15Q7.94 0.03 8.44 0.03L8.44 0.03L8.44 0.03Q9.12 0.03 9.83-0.32L9.83-0.32L9.83-0.32Q10.55-0.66 11.12-1.31L11.12-1.31L11.12-1.31Q11.70-1.97 12.05-2.93L12.05-2.93L12.05-2.93Q12.41-3.89 12.41-5.12L12.41-5.12L12.41-5.12Q12.41-6.44 11.78-7.41L11.78-7.41L11.78-7.41Q11.15-8.38 10.27-9.23L10.27-9.23L10.27-9.23Q9.04-8.52 8.18-7.72L8.18-7.72L8.18-7.72Q7.31-6.93 6.79-6.12L6.79-6.12L6.79-6.12Q6.27-5.31 6.04-4.51L6.04-4.51L6.04-4.51Q5.81-3.70 5.81-2.96ZM15.26-16.90L15.26-16.90L15.26-16.90Q15.26-17.78 14.83-18.30L14.83-18.30L14.83-18.30Q14.41-18.82 13.78-18.93L13.78-18.93L13.78-18.93Q13.20-18.82 12.57-18.50L12.57-18.50L12.57-18.50Q11.94-18.19 11.41-17.72L11.41-17.72L11.41-17.72Q10.87-17.26 10.53-16.70L10.53-16.70L10.53-16.70Q10.19-16.13 10.19-15.56L10.19-15.56L10.19-15.56Q10.19-14.60 10.63-13.83L10.63-13.83L10.63-13.83Q11.07-13.07 11.72-12.35L11.72-12.35L11.72-12.35Q12.24-12.68 12.86-13.23L12.86-13.23L12.86-13.23Q13.48-13.78 14.01-14.41L14.01-14.41L14.01-14.41Q14.55-15.04 14.90-15.68L14.90-15.68L14.90-15.68Q15.26-16.33 15.26-16.90ZM31.58-5.67L31.58-5.67L31.58-5.67Q31.58-4.14 30.94-2.88L30.94-2.88L30.94-2.88Q30.30-1.62 29.27-0.70L29.27-0.70L29.27-0.70Q28.24 0.22 26.95 0.73L26.95 0.73L26.95 0.73Q25.67 1.23 24.41 1.23L24.41 1.23L24.41 1.23Q23.20 1.23 22.13 0.99L22.13 0.99L22.13 0.99Q21.06 0.74 20.26 0.19L20.26 0.19L20.26 0.19Q19.45-0.36 18.98-1.27L18.98-1.27L18.98-1.27Q18.52-2.19 18.52-3.53L18.52-3.53L18.52-3.53Q18.52-4.77 18.97-5.78L18.97-5.78L18.97-5.78Q19.42-6.79 20.23-7.64L20.23-7.64L20.23-7.64Q21.04-8.49 22.15-9.19L22.15-9.19L22.15-9.19Q23.26-9.89 24.57-10.46L24.57-10.46L24.57-10.46Q23.61-11.34 22.91-12.37L22.91-12.37L22.91-12.37Q22.22-13.39 22.22-14.76L22.22-14.76L22.22-14.76Q22.22-15.91 22.80-16.89L22.80-16.89L22.80-16.89Q23.39-17.86 24.31-18.57L24.31-18.57L24.31-18.57Q25.23-19.28 26.38-19.74L26.38-19.74L26.38-19.74Q27.53-20.19 28.65-20.33L28.65-20.33L28.65-20.33Q30.71-19.67 32.01-18.63L32.01-18.63L32.01-18.63Q33.31-17.59 33.31-16.27L33.31-16.27L33.31-16.27Q33.31-15.56 32.90-14.86L32.90-14.86L32.90-14.86Q32.49-14.16 31.79-13.52L31.79-13.52L31.79-13.52Q31.09-12.87 30.20-12.31L30.20-12.31L30.20-12.31Q29.31-11.75 28.38-11.31L28.38-11.31L28.38-11.31Q28.95-10.74 29.53-10.15L29.53-10.15L29.53-10.15Q30.10-9.56 30.56-8.88L30.56-8.88L30.56-8.88Q31.01-8.19 31.30-7.41L31.30-7.41L31.30-7.41Q31.58-6.63 31.58-5.67ZM21.39-2.96L21.39-2.96L21.39-2.96Q21.39-2.19 21.61-1.63L21.61-1.63L21.61-1.63Q21.83-1.07 22.20-0.70L22.20-0.70L22.20-0.70Q22.57-0.33 23.05-0.15L23.05-0.15L23.05-0.15Q23.53 0.03 24.02 0.03L24.02 0.03L24.02 0.03Q24.71 0.03 25.42-0.32L25.42-0.32L25.42-0.32Q26.13-0.66 26.71-1.31L26.71-1.31L26.71-1.31Q27.28-1.97 27.64-2.93L27.64-2.93L27.64-2.93Q27.99-3.89 27.99-5.12L27.99-5.12L27.99-5.12Q27.99-6.44 27.36-7.41L27.36-7.41L27.36-7.41Q26.73-8.38 25.86-9.23L25.86-9.23L25.86-9.23Q24.63-8.52 23.76-7.72L23.76-7.72L23.76-7.72Q22.90-6.93 22.38-6.12L22.38-6.12L22.38-6.12Q21.86-5.31 21.63-4.51L21.63-4.51L21.63-4.51Q21.39-3.70 21.39-2.96ZM30.84-16.90L30.84-16.90L30.84-16.90Q30.84-17.78 30.42-18.30L30.42-18.30L30.42-18.30Q29.99-18.82 29.36-18.93L29.36-18.93L29.36-18.93Q28.79-18.82 28.16-18.50L28.16-18.50L28.16-18.50Q27.53-18.19 27.00-17.72L27.00-17.72L27.00-17.72Q26.46-17.26 26.12-16.70L26.12-16.70L26.12-16.70Q25.78-16.13 25.78-15.56L25.78-15.56L25.78-15.56Q25.78-14.60 26.21-13.83L26.21-13.83L26.21-13.83Q26.65-13.07 27.31-12.35L27.31-12.35L27.31-12.35Q27.83-12.68 28.45-13.23L28.45-13.23L28.45-13.23Q29.06-13.78 29.60-14.41L29.60-14.41L29.60-14.41Q30.13-15.04 30.49-15.68L30.49-15.68L30.49-15.68Q30.84-16.33 30.84-16.90ZM47.17-5.67L47.17-5.67L47.17-5.67Q47.17-4.14 46.53-2.88L46.53-2.88L46.53-2.88Q45.88-1.62 44.85-0.70L44.85-0.70L44.85-0.70Q43.83 0.22 42.54 0.73L42.54 0.73L42.54 0.73Q41.25 1.23 39.99 1.23L39.99 1.23L39.99 1.23Q38.79 1.23 37.72 0.99L37.72 0.99L37.72 0.99Q36.65 0.74 35.84 0.19L35.84 0.19L35.84 0.19Q35.03-0.36 34.57-1.27L34.57-1.27L34.57-1.27Q34.10-2.19 34.10-3.53L34.10-3.53L34.10-3.53Q34.10-4.77 34.56-5.78L34.56-5.78L34.56-5.78Q35.01-6.79 35.82-7.64L35.82-7.64L35.82-7.64Q36.62-8.49 37.73-9.19L37.73-9.19L37.73-9.19Q38.84-9.89 40.16-10.46L40.16-10.46L40.16-10.46Q39.20-11.34 38.50-12.37L38.50-12.37L38.50-12.37Q37.80-13.39 37.80-14.76L37.80-14.76L37.80-14.76Q37.80-15.91 38.39-16.89L38.39-16.89L38.39-16.89Q38.98-17.86 39.90-18.57L39.90-18.57L39.90-18.57Q40.81-19.28 41.96-19.74L41.96-19.74L41.96-19.74Q43.12-20.19 44.24-20.33L44.24-20.33L44.24-20.33Q46.29-19.67 47.59-18.63L47.59-18.63L47.59-18.63Q48.90-17.59 48.90-16.27L48.90-16.27L48.90-16.27Q48.90-15.56 48.48-14.86L48.48-14.86L48.48-14.86Q48.07-14.16 47.37-13.52L47.37-13.52L47.37-13.52Q46.68-12.87 45.79-12.31L45.79-12.31L45.79-12.31Q44.90-11.75 43.96-11.31L43.96-11.31L43.96-11.31Q44.54-10.74 45.11-10.15L45.11-10.15L45.11-10.15Q45.69-9.56 46.14-8.88L46.14-8.88L46.14-8.88Q46.59-8.19 46.88-7.41L46.88-7.41L46.88-7.41Q47.17-6.63 47.17-5.67ZM36.98-2.96L36.98-2.96L36.98-2.96Q36.98-2.19 37.20-1.63L37.20-1.63L37.20-1.63Q37.42-1.07 37.79-0.70L37.79-0.70L37.79-0.70Q38.16-0.33 38.64-0.15L38.64-0.15L38.64-0.15Q39.12 0.03 39.61 0.03L39.61 0.03L39.61 0.03Q40.29 0.03 41.01-0.32L41.01-0.32L41.01-0.32Q41.72-0.66 42.29-1.31L42.29-1.31L42.29-1.31Q42.87-1.97 43.22-2.93L43.22-2.93L43.22-2.93Q43.58-3.89 43.58-5.12L43.58-5.12L43.58-5.12Q43.58-6.44 42.95-7.41L42.95-7.41L42.95-7.41Q42.32-8.38 41.44-9.23L41.44-9.23L41.44-9.23Q40.21-8.52 39.35-7.72L39.35-7.72L39.35-7.72Q38.49-6.93 37.97-6.12L37.97-6.12L37.97-6.12Q37.45-5.31 37.21-4.51L37.21-4.51L37.21-4.51Q36.98-3.70 36.98-2.96ZM46.43-16.90L46.43-16.90L46.43-16.90Q46.43-17.78 46.01-18.30L46.01-18.30L46.01-18.30Q45.58-18.82 44.95-18.93L44.95-18.93L44.95-18.93Q44.38-18.82 43.75-18.50L43.75-18.50L43.75-18.50Q43.12-18.19 42.58-17.72L42.58-17.72L42.58-17.72Q42.05-17.26 41.70-16.70L41.70-16.70L41.70-16.70Q41.36-16.13 41.36-15.56L41.36-15.56L41.36-15.56Q41.36-14.60 41.80-13.83L41.80-13.83L41.80-13.83Q42.24-13.07 42.90-12.35L42.90-12.35L42.90-12.35Q43.42-12.68 44.03-13.23L44.03-13.23L44.03-13.23Q44.65-13.78 45.18-14.41L45.18-14.41L45.18-14.41Q45.72-15.04 46.07-15.68L46.07-15.68L46.07-15.68Q46.43-16.33 46.43-16.90Z" fill="#000000"></path></g></svg>